<svg xmlns="http://www.w3.org/2000/svg" width="18.364" height="23.293" viewBox="0 0 18.364 23.293">
  <g id="download_2_" data-name="download (2)" transform="translate(-50)">
    <g id="Group_50" data-name="Group 50" transform="translate(52.295)">
      <g id="Group_49" data-name="Group 49" transform="translate(0)">
        <path id="Path_10" data-name="Path 10" d="M111.063,10.375l-1.019-1.16a.774.774,0,0,0-1.09-.071l-3.039,2.663V.773A.773.773,0,0,0,105.142,0H103.6a.773.773,0,0,0-.773.773V11.807L99.784,9.144a.775.775,0,0,0-1.09.071l-1.019,1.158a.774.774,0,0,0,.071,1.093l6.115,5.352a.774.774,0,0,0,1.019,0l6.113-5.352A.772.772,0,0,0,111.063,10.375Z" transform="translate(-97.482)" fill="#39444c"/>
      </g>
    </g>
    <g id="Group_52" data-name="Group 52" transform="translate(50 20.2)">
      <g id="Group_51" data-name="Group 51" transform="translate(0)">
        <path id="Path_11" data-name="Path 11" d="M65.6,416H48.765a.77.77,0,0,0-.765.773v1.546a.769.769,0,0,0,.765.773H65.6a.77.77,0,0,0,.765-.773v-1.546A.77.77,0,0,0,65.6,416Z" transform="translate(-48 -416)" fill="#39444c"/>
      </g>
    </g>
  </g>
</svg>
