<svg xmlns="http://www.w3.org/2000/svg" width="85.114" height="74.712" viewBox="0 0 85.114 74.712">
  <g id="Solid" transform="translate(-24 -52.347)">
    <path id="Path_6" data-name="Path 6" d="M98.4,265.437a4.482,4.482,0,0,0-5.925,2.253,28.4,28.4,0,0,1-51.3,1.107l2.539,1.13a4.483,4.483,0,0,0,3.646-8.19l-11.8-5.252a4.483,4.483,0,0,0-5.918,2.272l-5.253,11.8a4.483,4.483,0,0,0,8.19,3.647l.6-1.346a37.362,37.362,0,0,0,33.379,20.579c.217,0,.434,0,.651-.006a37.36,37.36,0,0,0,33.443-22.066A4.483,4.483,0,0,0,98.4,265.437Z" transform="translate(0 -166.374)" fill="#39444c"/>
    <path id="Path_7" data-name="Path 7" d="M142.909,69.311a4.483,4.483,0,0,0-5.918,2.272l-.6,1.346a37.363,37.363,0,0,0-67.336,1.191A4.483,4.483,0,0,0,77.2,77.864a28.4,28.4,0,0,1,51.2-.878l-2.539-1.13a4.483,4.483,0,1,0-3.647,8.19l11.763,5.237.021.01a4.482,4.482,0,0,0,5.93-2.266l5.253-11.8a4.483,4.483,0,0,0-2.271-5.918Z" transform="translate(-36.456 0)" fill="#39444c"/>
  </g>
</svg>
