<svg xmlns="http://www.w3.org/2000/svg" width="43.172" height="43.168" viewBox="0 0 43.172 43.168">
  <g id="plug" transform="translate(-14.564 -9.955)">
    <path id="Path_3" data-name="Path 3" d="M23.228,206.849l-3.193,3.193-3.491-3.491,3.193-3.193.383-1.962-1.527-1.527-1.962.383-3.193,3.193L12.3,202.311,9.917,204.7l.907.907,1.48-1.48,10.158,10.158-6.154,6.154-4.658-.213-5.287-5.287-.213-4.659,3.768-3.768L9.01,205.6l-4.168,4.168.252,5.532-3.458,3.458,2.64,2.64L0,225.679l.907.907,4.277-4.277,2.639,2.639,3.457-3.457,5.535.253,7.461-7.461-1.135-1.135,3.193-3.193.383-1.962-1.527-1.527Zm-5.967-5.413.908-.177.561.561-.177.908-2.916,2.916-1.292-1.292ZM3.451,218.762l.777-.777L8.6,222.357l-.777.777Zm6.056,2.688-4.372-4.372.777-.777,4.372,4.372ZM25.15,209.324l-2.916,2.916-1.292-1.292,2.916-2.916.908-.177.561.562Z" transform="translate(14.564 -173.463)" fill="#39444c"/>
    <path id="Path_4" data-name="Path 4" d="M247.815,5.236,252.143.908,251.236,0l-4.328,4.328-2.639-2.639-3.456,3.456-5.534-.253-7.46,7.46,11.97,11.97,2.843-2.842-.907-.907-1.936,1.935L229.633,12.355,235.786,6.2l4.658.213L245.73,11.7l.213,4.658-3.311,3.311.907.907,3.711-3.711L247,11.333l3.457-3.457Zm.826,2.64-.777.777-4.372-4.372.777-.777Zm-6.055-2.688,4.372,4.372-.777.777-4.372-4.372Z" transform="translate(-194.407 9.954)" fill="#39444c"/>
    <path id="Path_5" data-name="Path 5" d="M147.743,369.252l-3.933-.179.063-1.381,3.324.151.791-.791.978.978Zm2.2-2.2-.978-.978.978-.978.978.978ZM151.9,365.1l-.978-.978.978-.978.978.978Z" transform="translate(-116.885 -323.164)" fill="#39444c"/>
  </g>
</svg>
