<svg id="Group_442" data-name="Group 442" xmlns="http://www.w3.org/2000/svg" width="47.047" height="20.918" viewBox="0 0 47.047 20.918">
  <path id="Path_2455" data-name="Path 2455" d="M44.7,129.529A4.429,4.429,0,0,0,39,136l-4.716,4.281a4.434,4.434,0,0,0-7.235.95l-5.437-4.389a4.432,4.432,0,1,0-8.815.391l-5.125,5.244A4.429,4.429,0,1,0,8.7,144.323l4.938-5.053a4.431,4.431,0,0,0,7.33-.344l5.6,4.519a4.433,4.433,0,0,0,3.784,4.192,4.5,4.5,0,0,0,.654.048,4.436,4.436,0,0,0,4.275-5.572l5.247-4.764a4.432,4.432,0,1,0,4.173-7.82ZM6.808,145.841a2.408,2.408,0,1,1-2.035-2.731h0A2.41,2.41,0,0,1,6.808,145.841Zm12.76-8.877h0a2.406,2.406,0,1,1-2.386-2.757,2.443,2.443,0,0,1,.354.026A2.41,2.41,0,0,1,19.569,136.964ZM33.377,143.6a2.41,2.41,0,1,1-2.032-2.731,2.406,2.406,0,0,1,2.032,2.731h0ZM45,133.788a2.408,2.408,0,1,1-2.033-2.731h0A2.407,2.407,0,0,1,45,133.788Z" transform="translate(0 -129.006)" fill="#39444c"/>
</svg>
