<svg xmlns="http://www.w3.org/2000/svg" width="1016.104" height="233.436" viewBox="0 0 1016.104 233.436">
  <g id="Group_1" data-name="Group 1" transform="translate(-441.896 -427.104)">
    <path id="Path_12" data-name="Path 12" d="M615.52,183q-24.33,0-24.33,16.07a12.18,12.18,0,0,0,6,10.94,89.786,89.786,0,0,0,10,4.57q6.91,2.79,18.3,6.36a133.248,133.248,0,0,1,18.75,7.37,42.91,42.91,0,0,1,12.28,8.81,30.439,30.439,0,0,1,6.8,11.72,53.411,53.411,0,0,1,2.12,16.07A54.171,54.171,0,0,1,661.72,286,40.361,40.361,0,0,1,651,301.08a47.06,47.06,0,0,1-16.52,9.15,69.09,69.09,0,0,1-21.43,3.12q-17.4,0-42.63-5.35l-8-1.57,3.12-23.88q29.91,4,45.76,4,23.65,0,23.66-19.64a13.17,13.17,0,0,0-5.36-11.16q-5.8-4-21.87-8.7a165.09,165.09,0,0,1-22-7.93,50.8,50.8,0,0,1-14.62-9.6,32.24,32.24,0,0,1-8-12.38,47.19,47.19,0,0,1-2.46-15.85q0-23,13.73-34t38-11a179.994,179.994,0,0,1,18.75,1.11q10.49,1.13,23.21,3.35l8,1.56-2.46,24.33q-15.84-1.79-26.89-2.68T615.52,183Z" transform="translate(320 305)" fill="#fff"/>
    <path id="Path_13" data-name="Path 13" d="M677.56,310.67,711.71,158.9h58.48l34.15,151.77h-30.8l-6-27.45H714.39l-6,27.45Zm58-126.32-15.4,72.09h41.52l-15.4-72.09Z" transform="translate(320 305)" fill="#fff"/>
    <path id="Path_14" data-name="Path 14" d="M880.44,266.48h-25v44.19h-30.8V158.9h55.8q54,0,54,52.68,0,26.78-13.61,40.84T880.44,266.48Zm-25-81.24v54.91h24.77q23,0,23-28.57,0-14.07-5.47-20.2t-17.52-6.14Z" transform="translate(320 305)" fill="#fff"/>
    <path id="Path_15" data-name="Path 15" d="M1043.37,310.67V247.74H986.9v62.93H956.1V158.9h30.8v62h56.47v-62h30.8V310.67Z" transform="translate(320 305)" fill="#fff"/>
    <path id="Path_16" data-name="Path 16" d="M1107.2,310.67V158.9H1138V310.67Z" transform="translate(320 305)" fill="#fff"/>
    <path id="Path_17" data-name="Path 17" d="M299.89,225.21a2.68,2.68,0,0,0-3.81,2.69V250a6.15,6.15,0,0,0,3.81,5.39l150.21,53a2.68,2.68,0,0,0,3.81-2.7v-22.1a6.13,6.13,0,0,0-3.81-5.39Z" transform="translate(320 305)" fill="#4aa473"/>
    <path id="Path_18" data-name="Path 18" d="M299.89,272.11a2.69,2.69,0,0,0-3.81,2.7V296.9a6.14,6.14,0,0,0,3.81,5.39l150.21,53a2.69,2.69,0,0,0,3.81-2.7V330.5a6.12,6.12,0,0,0-3.81-5.39Z" transform="translate(320 305)" fill="#248868"/>
    <path id="Path_19" data-name="Path 19" d="M453.91,147.15V125.07a2.68,2.68,0,0,0-3.81-2.69l-150.21,53a6.14,6.14,0,0,0-3.81,5.38v22.72a6.14,6.14,0,0,0,3.81,5.38l150.21,53a2.69,2.69,0,0,0,3.81-2.7V237.05a6.13,6.13,0,0,0-3.81-5.39L338,192.1l112.1-39.56a6.13,6.13,0,0,0,3.81-5.39Z" transform="translate(320 305)" fill="#6cc282"/>
    <path id="Path_20" data-name="Path 20" d="M275.93,175.36l-150.21-53a2.68,2.68,0,0,0-3.81,2.69v22.08a6.13,6.13,0,0,0,3.81,5.39L237.85,192.1,125.72,231.66a6.13,6.13,0,0,0-3.81,5.39v22.09a2.69,2.69,0,0,0,3.81,2.7l150.21-53a6.14,6.14,0,0,0,3.81-5.38V180.74a6.14,6.14,0,0,0-3.81-5.38Z" transform="translate(320 305)" fill="#6cc282"/>
    <path id="Path_21" data-name="Path 21" d="M275.93,225.21a2.68,2.68,0,0,1,3.81,2.69V250a6.15,6.15,0,0,1-3.81,5.39l-150.21,53a2.68,2.68,0,0,1-3.81-2.7v-22.1a6.13,6.13,0,0,1,3.81-5.39Z" transform="translate(320 305)" fill="#4aa473"/>
    <path id="Path_22" data-name="Path 22" d="M275.93,272.11a2.69,2.69,0,0,1,3.81,2.7V296.9a6.14,6.14,0,0,1-3.81,5.39l-150.21,53a2.69,2.69,0,0,1-3.81-2.7V330.5a6.12,6.12,0,0,1,3.81-5.39Z" transform="translate(320 305)" fill="#248868"/>
  </g>
</svg>
