<svg xmlns="http://www.w3.org/2000/svg" width="16.693" height="28.159" viewBox="0 0 16.693 28.159">
  <g id="Group_454" data-name="Group 454" transform="translate(-38.262 -314.73)">
    <path id="sprinkler-light" d="M27.957,18.143H21.373v-9.6a.417.417,0,0,0-.417-.417h-.835a.417.417,0,0,0-.417.417v9.6H13.119a.927.927,0,0,0-.742,1.484l4.822,5.38v6.075a.417.417,0,0,0,.417.417h.835a.417.417,0,0,0,.417-.417V24.315l-4.126-4.5h11.59l-4.126,4.5v6.767a.417.417,0,0,0,.417.417h.835a.417.417,0,0,0,.417-.417V25.007l4.822-5.38a.927.927,0,0,0-.742-1.484Z" transform="translate(26.07 311.389)" fill="#39444c"/>
    <g id="sensor" transform="translate(40.554 244.142)">
      <path id="Path_41201" data-name="Path 41201" d="M412.065,70.691a.355.355,0,0,0-.5.5,5.348,5.348,0,0,1,0,7.559.355.355,0,0,0,.5.5,6.057,6.057,0,0,0,0-8.563Z" transform="translate(-401.728 0)" fill="#39444c"/>
      <path id="Path_41202" data-name="Path 41202" d="M366.645,116.111a.355.355,0,0,0-.5.5,3.828,3.828,0,0,1,0,5.411.355.355,0,0,0,.5.5,4.537,4.537,0,0,0,0-6.414Z" transform="translate(-357.382 -44.346)" fill="#39444c"/>
      <path id="Path_41203" data-name="Path 41203" d="M321.192,161.563a.355.355,0,0,0-.5.5,2.307,2.307,0,0,1,0,3.261.355.355,0,0,0,.5.5,3.016,3.016,0,0,0,0-4.264Z" transform="translate(-313.004 -88.723)" fill="#39444c"/>
      <path id="Path_41204" data-name="Path 41204" d="M.71,74.973a5.31,5.31,0,0,1,1.564-3.78.355.355,0,0,0-.5-.5,6.057,6.057,0,0,0,0,8.563.355.355,0,0,0,.5-.5A5.31,5.31,0,0,1,.71,74.973Z" transform="translate(0 0)" fill="#39444c"/>
      <path id="Path_41205" data-name="Path 41205" d="M64.929,119.318a3.8,3.8,0,0,1,1.12-2.705.355.355,0,0,0-.5-.5,4.537,4.537,0,0,0,0,6.414.355.355,0,0,0,.5-.5A3.8,3.8,0,0,1,64.929,119.318Z" transform="translate(-62.7 -44.345)" fill="#39444c"/>
      <path id="Path_41206" data-name="Path 41206" d="M129.872,161.563a.355.355,0,0,0-.5,0,3.016,3.016,0,0,0,0,4.264.355.355,0,0,0,.5-.5,2.307,2.307,0,0,1,0-3.261A.355.355,0,0,0,129.872,161.563Z" transform="translate(-125.449 -88.723)" fill="#39444c"/>
      <path id="Path_41207" data-name="Path 41207" d="M194.295,192.8a1.495,1.495,0,1,0,1.495,1.495A1.5,1.5,0,0,0,194.295,192.8Z" transform="translate(-188.24 -119.322)" fill="#39444c"/>
    </g>
  </g>
</svg>
